<?xml version="1.0" encoding="UTF-8"?>
<svg xmlns="http://www.w3.org/2000/svg" viewBox="0 0 160 160">
  <defs>
    <style>
      .q {
        fill: #68033b;
      }

      .r {
        fill: #4c0a2e;
      }

      .s {
        fill: #7a153e;
      }

      .t {
        fill: #7a003d;
      }

      .u {
        fill: #fff;
      }

      .v {
        fill: none;
        stroke: #000;
        stroke-miterlimit: 10;
        stroke-width: .25px;
      }

      .w {
        fill: #f9f2f5;
      }

      .x {
        fill: #e5852e;
      }

      .y {
        fill: #f5c75c;
      }
    </style>
  </defs>
  <g id="c" data-name="Camada 8">
    <path class="x" d="M72.92,122.42c-1.19-3.28-10.48-2.09-17.23,4.34-4.3,4.11-8.56,11.3-7.44,14,1.22,2.95,8.71.14,13.77-3.47,5.55-3.96,12.06-11.67,10.9-14.87Z"/>
    <path class="x" d="M81.36,121.31c-2.92,1.9.32,10.69,8.11,15.81,4.97,3.27,12.94,5.8,15.32,4.1,2.6-1.86-1.82-8.52-6.48-12.63-5.11-4.52-14.08-9.12-16.94-7.27Z"/>
  </g>
  <g id="e" data-name="Layer 17">
    <path class="r" d="M96.84,72.76c3.51-4.9,13.69-1.5,16.13-6.93.81-1.8,1.16-5.59,1.19-8.5.02-2.81-.15-3.91.7-4.7,1.09-1.01,3.38-1.08,4.6,0,1.6,1.42-.02,3.63,1.46,7.57.51,1.35.66,1,2.35,4.03,1.92,3.45,2.88,5.18,2.93,6.79.11,3.18-2,5.76-2.95,6.91-1.42,1.73-2.16,2.11-3.36,3.27-.67.64-1.09,1.14-1.35,1.44-6.35,7.21-9.65,10.96-12.53,11-5.8.07-13.4-14.96-9.17-20.86Z"/>
    <path class="s" d="M121.65,61.58c-.43.1-5.07,1.23-6.72,5.53-1.05,2.73-.28,5.18,0,6.09.23.74,1.54,4.93,4.82,5.53,2.09.39,4.07-.86,5.16-2.14,1.78-2.09,1.47-4.75,1.28-6.4-.51-4.43-3.28-7.41-4.55-8.61Z"/>
  </g>
  <g id="n" data-name="Layer 18">
    <path class="t" d="M101.37,124.57c-6.89,5.96-15.37,6.36-21.25,6.64-5.19.25-19.69.94-28.52-9.05-5.84-6.6-6.48-14.78-7.04-21.96-.69-8.78,1.08-15.66,2.05-19.21.79-2.86,2.04-7.3,4.99-12.44,3.42-5.96,5.12-5.81,6.21-9.36,2.02-6.55-2.71-9.7-2.99-17.59-.25-7.16,3.26-16,10.58-20.87,6.76-4.49,16.49-5.39,24.37-.47,9.32,5.83,10.16,17.03,10.58,22.51.23,2.95-.17,5.05-.32,5.75-.31,1.47-1.21,5.57-4.51,9.07-1.76,1.87-2.46,1.73-2.7,2.76-.62,2.66,3.73,4.91,7.8,9.6,0,0,2.49,2.87,5.94,9.93,4.7,9.61,8.27,33.02-5.2,44.67Z"/>
    <path class="w" d="M56.11,104.72c-3.38-8.6-.92-19.83,4.16-27.24,0,0,8.43-12.36,7.53-15.41-.37-1.26-.97-1.26-2.07-3.3-1.08-2.02-5.38-9.46-4.42-18.83.43-4.16.7-8.03,3.84-10.52,2.2-1.74,5.77-2.86,8.67-1.51,3.83,1.78,5.15,7.18,4.5,11.11-1.01,6.13-6.52,7.01-6.71,12.49-.12,3.49,1.99,6.93,4.86,8.73,3.96,2.48,9.73,2.05,13.08-1.5,2.09-2.21,3.29-5.67,2.49-8.64-.78-2.91-2.85-2.99-4.71-7.18-1.39-3.14-1.38-5.68-1.37-6.25.03-1.51.11-5.49,2.9-7.26.43-.28,1.62-1.03,2.92-.77,3.52.68,4.66,8.08,5.03,10.5.58,3.79,1.48,9.64-1.66,14.86-2.08,3.47-4.28,3.97-4.71,7.05-.32,2.28.68,3.95,2.54,7.45,1.92,3.61,3.44,7.44,5.48,10.98,4.51,7.84,7.28,27.98-3.69,36.75-7.37,5.9-18.57,4.75-25.94,1.25-1.76-.84-9.5-4.52-12.74-12.76Z"/>
    <ellipse cx="70.3" cy="40.11" rx="2.35" ry="2.8"/>
    <ellipse class="u" cx="71.01" cy="39.29" rx=".61" ry=".74"/>
    <path class="v" d="M67.06,36.95c.03.2.11.6.42.96.64.73,1.65.61,1.74.6"/>
    <path class="v" d="M66.05,37.95c.06.19.22.57.6.86.77.6,1.74.29,1.82.26"/>
    <path class="v" d="M65.56,39.02c.06.19.22.57.6.86.77.6,1.74.29,1.82.26"/>
    <ellipse cx="92.22" cy="39.84" rx="2.35" ry="2.8"/>
    <ellipse class="u" cx="92.93" cy="38.9" rx=".61" ry=".74"/>
    <path class="v" d="M93.6,37.94c.2.01.61.02,1.03-.22.85-.48.93-1.49.94-1.59"/>
    <path class="v" d="M94.22,39.06c.2.01.61.02,1.03-.22.85-.48.93-1.49.94-1.59"/>
    <path class="v" d="M94.28,39.89c.17.1.54.28,1.02.26.97-.05,1.5-.92,1.54-1.01"/>
    <path class="q" d="M57.81,59.19c-9.26,13.91-15.89,25.78-20.3,34.2-7.5,14.34-7.84,17.56-6.73,18.84,2.33,2.71,12.65-4.18,19.42-10.8,7.92-7.75,17.25-15.36,15.41-27.2-1.03-6.65-5.08-12.01-7.79-15.04Z"/>
  </g>
  <g id="p" data-name="Camada 22">
    <path class="y" d="M101.8,55.28c-2.88.94-7.72,2.14-13.79,2.01-.77-.02-1.28-.05-1.53-.07-3.08-.23-8.37-1.19-14.86-5.49,1.07.13,4.21.39,7.51-1.19,2.8-1.34,4.23-3.29,4.79-4.16,1.3,1.25,3.14,2.77,5.53,4.23.64.4,1.31.78,2.02,1.15,4.03,2.1,7.77,3.05,10.34,3.51Z"/>
    <path class="x" d="M101.77,55.37c-5.75,1.95-10.55,2.09-13.38,1.96-2.6-.12-4.55-.5-5.18-.63-5.41-1.11-9.27-3.39-11.48-4.95,1.08-.02,2.16-.03,3.24-.05,1.72.74,4.35,1.73,7.71,2.45,3.13.67,5.56.82,9.6,1.04,2.36.13,5.6.25,9.49.18Z"/>
  </g>
</svg>